<?xml version="1.0" standalone="no"?>
<!DOCTYPE svg PUBLIC "-//W3C//DTD SVG 20010904//EN"
 "http://www.w3.org/TR/2001/REC-SVG-20010904/DTD/svg10.dtd">
<svg version="1.0" xmlns="http://www.w3.org/2000/svg"
 width="512.000000pt" height="512.000000pt" viewBox="0 0 512.000000 512.000000"
 preserveAspectRatio="xMidYMid meet">

<g transform="translate(0.000000,512.000000) scale(0.100000,-0.100000)"
fill="#000000" stroke="none">
<path d="M3518 4463 l-238 -3 0 -125 0 -125 289 0 c159 0 297 -3 306 -6 45
-18 45 -9 45 -937 l0 -874 103 -12 c56 -6 112 -14 125 -17 l22 -6 0 989 0 989
-29 45 c-17 28 -44 53 -67 65 -44 21 -114 23 -556 17z"/>
<path d="M1055 4446 c-39 -17 -70 -52 -90 -98 -13 -33 -15 -162 -15 -1088 l0
-1051 21 3 c17 2 29 21 54 88 l32 85 72 3 71 3 0 885 0 885 25 24 24 25 296 0
295 0 0 125 0 125 -377 0 c-293 -1 -385 -4 -408 -14z"/>
<path d="M1992 908 c-22 -34 -23 -32 26 -140 17 -36 28 -69 25 -72 -4 -3 231
-6 520 -6 290 0 527 2 527 4 0 2 -21 34 -46 72 -26 38 -58 93 -71 122 l-24 52
-469 0 -468 0 -20 -32z"/>
</g>
</svg>
